<?xml version="1.0" encoding="UTF-8" standalone="no"?>
<svg
   xmlns:dc="http://purl.org/dc/elements/1.1/"
   xmlns:cc="http://creativecommons.org/ns#"
   xmlns:rdf="http://www.w3.org/1999/02/22-rdf-syntax-ns#"
   xmlns:svg="http://www.w3.org/2000/svg"
   xmlns="http://www.w3.org/2000/svg"
   xmlns:sodipodi="http://sodipodi.sourceforge.net/DTD/sodipodi-0.dtd"
   xmlns:inkscape="http://www.inkscape.org/namespaces/inkscape"
   sodipodi:docname="man-standing-mask.svg"
   inkscape:version="1.0 (4035a4fb49, 2020-05-01)"
   id="svg8"
   version="1.1"
   viewBox="0 0 175.31447 165.09999"
   height="165.09999mm"
   width="175.31447mm">
  <defs
     id="defs2">
    <clipPath
       clipPathUnits="userSpaceOnUse"
       id="clipPath28">
      <path
         d="M 0,500 H 750 V 0 H 0 Z"
         id="path26" />
    </clipPath>
    <clipPath
       clipPathUnits="userSpaceOnUse"
       id="clipPath36">
      <path
         d="M 51.5266,440.057 H 548.481 V 67.6883 H 51.5266 Z"
         id="path34" />
    </clipPath>
    <clipPath
       clipPathUnits="userSpaceOnUse"
       id="clipPath52">
      <path
         d="M 100.007,238.71 H 382.249 V 41.3907 H 100.007 Z"
         id="path50" />
    </clipPath>
    <clipPath
       clipPathUnits="userSpaceOnUse"
       id="clipPath68">
      <path
         d="M 422.651,372.319 H 698.473 V 161.366 H 422.651 Z"
         id="path66" />
    </clipPath>
    <clipPath
       clipPathUnits="userSpaceOnUse"
       id="clipPath132">
      <path
         d="M 200.464,167.855 H 325.032 V 0 H 200.464 Z"
         id="path130" />
    </clipPath>
    <clipPath
       clipPathUnits="userSpaceOnUse"
       id="clipPath148">
      <path
         d="m 268.736,101.704 h 18.087 V 0 h -18.087 z"
         id="path146" />
    </clipPath>
    <clipPath
       clipPathUnits="userSpaceOnUse"
       id="clipPath172">
      <path
         d="M 184.494,317.385 H 337.119 V 128.98 H 184.494 Z"
         id="path170" />
    </clipPath>
    <clipPath
       clipPathUnits="userSpaceOnUse"
       id="clipPath192">
      <path
         d="m 229.95,343.191 h 61.198 V 291.578 H 229.95 Z"
         id="path190" />
    </clipPath>
    <clipPath
       clipPathUnits="userSpaceOnUse"
       id="clipPath212">
      <path
         d="M 196.448,436.185 H 308.262 V 340.643 H 196.448 Z"
         id="path210" />
    </clipPath>
    <clipPath
       clipPathUnits="userSpaceOnUse"
       id="clipPath248">
      <path
         d="m 255.788,396.177 h 8.366 v -23.433 h -8.366 z"
         id="path246" />
    </clipPath>
    <clipPath
       clipPathUnits="userSpaceOnUse"
       id="clipPath292">
      <path
         d="m 221.621,468 h 73.253 v -41.841 h -73.253 z"
         id="path290" />
    </clipPath>
    <clipPath
       clipPathUnits="userSpaceOnUse"
       id="clipPath336">
      <path
         d="m 257.33,382.903 h 9.567 v -19.038 h -9.567 z"
         id="path334" />
    </clipPath>
    <clipPath
       clipPathUnits="userSpaceOnUse"
       id="clipPath352">
      <path
         d="m 222.652,369.088 h 69.516 v -43.746 h -69.516 z"
         id="path350" />
    </clipPath>
    <clipPath
       clipPathUnits="userSpaceOnUse"
       id="clipPath368">
      <path
         d="m 234.328,310.871 h 87.356 V 140.613 h -87.356 z"
         id="path366" />
    </clipPath>
    <clipPath
       clipPathUnits="userSpaceOnUse"
       id="clipPath388">
      <path
         d="m 151.453,302.853 h 76.873 V 148.347 h -76.873 z"
         id="path386" />
    </clipPath>
    <clipPath
       clipPathUnits="userSpaceOnUse"
       id="clipPath416">
      <path
         d="m 250.603,222.6 h 43.621 v -61.164 h -43.621 z"
         id="path414" />
    </clipPath>
    <clipPath
       clipPathUnits="userSpaceOnUse"
       id="clipPath440">
      <path
         d="m 291.131,207.654 h 89.522 v -46.218 h -89.522 z"
         id="path438" />
    </clipPath>
    <clipPath
       clipPathUnits="userSpaceOnUse"
       id="clipPath456">
      <path
         d="M 259.887,261.63 H 371.885 V 242.112 H 259.887 Z"
         id="path454" />
    </clipPath>
    <clipPath
       clipPathUnits="userSpaceOnUse"
       id="clipPath472">
      <path
         d="m 259.887,247.805 h 14.715 v -47.429 h -14.715 z"
         id="path470" />
    </clipPath>
    <clipPath
       clipPathUnits="userSpaceOnUse"
       id="clipPath488">
      <path
         d="M 257.896,258.202 H 369.158 V 237.35 H 257.896 Z"
         id="path486" />
    </clipPath>
    <clipPath
       clipPathUnits="userSpaceOnUse"
       id="clipPath508">
      <path
         d="M 273.103,287.608 H 305.55 V 242.112 H 273.103 Z"
         id="path506" />
    </clipPath>
    <clipPath
       clipPathUnits="userSpaceOnUse"
       id="clipPath532">
      <path
         d="m 303.25,276.491 h 66.59 v -34.379 h -66.59 z"
         id="path530" />
    </clipPath>
    <clipPath
       clipPathUnits="userSpaceOnUse"
       id="clipPath548">
      <path
         d="m 280.009,316.641 h 83.309 v -14.519 h -83.309 z"
         id="path546" />
    </clipPath>
    <clipPath
       clipPathUnits="userSpaceOnUse"
       id="clipPath564">
      <path
         d="m 280.009,306.357 h 10.945 v -35.28 h -10.945 z"
         id="path562" />
    </clipPath>
  </defs>
  <sodipodi:namedview
     inkscape:window-maximized="0"
     inkscape:window-y="0"
     inkscape:window-x="160"
     inkscape:window-height="1030"
     inkscape:window-width="1424"
     showgrid="false"
     inkscape:document-rotation="0"
     inkscape:current-layer="g24"
     inkscape:document-units="mm"
     inkscape:cy="300.70274"
     inkscape:cx="282.11086"
     inkscape:zoom="0.98994949"
     inkscape:pageshadow="2"
     inkscape:pageopacity="0.0"
     borderopacity="1.0"
     bordercolor="#666666"
     pagecolor="#ffffff"
     id="base" />
  <metadata
     id="metadata5">
    <rdf:RDF>
      <cc:Work
         rdf:about="">
        <dc:format>image/svg+xml</dc:format>
        <dc:type
           rdf:resource="http://purl.org/dc/dcmitype/StillImage" />
        <dc:title></dc:title>
      </cc:Work>
    </rdf:RDF>
  </metadata>
  <g
     transform="translate(-17.42149,-72.017064)"
     id="layer1"
     inkscape:groupmode="layer"
     inkscape:label="Layer 1">
    <g
       id="g18"
       inkscape:label="3704139"
       transform="matrix(0.35277777,0,0,-0.35277777,-0.75594933,237.11706)">
      <g
         id="g22">
        <g
           id="g24"
           clip-path="url(#clipPath28)">
          <g
             id="g30">
            <g
               id="g32" />
            <g
               id="g44">
              <g
                 clip-path="url(#clipPath36)"
                 id="g42">
                <g
                   transform="translate(130.3022,356.1123)"
                   id="g40">
                  <path
                     d="m 0,0 c -38.081,4.582 -85.865,-39.389 -77.896,-115.506 10.962,-104.692 90.379,-149.723 159.876,-166.274 69.498,-16.552 166.099,-1.391 226.517,36.733 60.419,38.124 106.875,98.15 109.615,187.067 C 420.285,12.516 369.699,121.316 261.308,71.157 179.041,33.087 209.233,-32.473 117.168,-39.224 78.387,-42.067 46.32,-5.572 0,0"
                     style="fill:#eaf2f6;fill-opacity:1;fill-rule:nonzero;stroke:none"
                     id="path38" />
                </g>
              </g>
            </g>
          </g>
          <g
             id="g46">
            <g
               id="g48" />
            <g
               id="g60">
              <g
                 clip-path="url(#clipPath52)"
                 id="g58">
                <g
                   transform="translate(168.9482,235.3232)"
                   id="g56">
                  <path
                     d="m 0,0 c -18.861,10.326 -52.897,-2.59 -64.625,-43.862 -16.129,-56.767 15.807,-96.763 48.521,-119.87 32.713,-23.108 86.145,-35.365 125.537,-28.125 39.391,7.238 76.085,28.786 96.055,74.486 15.833,36.232 12.199,103.4 -54.667,99.903 -50.75,-2.654 -48.711,-43.067 -98.028,-27.38 C 32.019,-38.239 22.942,-12.561 0,0"
                     style="fill:#eaf2f6;fill-opacity:1;fill-rule:nonzero;stroke:none"
                     id="path54" />
                </g>
              </g>
            </g>
          </g>
          <g
             id="g78"
             transform="translate(411.1367,332.1543)">
            <path
               d="m 0,0 c 6.434,-1.541 13.346,1.542 17.204,7.054 3.858,5.512 5.857,16.339 2.74,26.17 -5.224,16.481 -20.898,20.484 -33.683,19.288 -8.125,-0.761 -16.698,-5.602 -22.334,-11.72 -2.846,-3.089 -5.188,-6.897 -5.784,-11.22 -0.596,-4.322 0.842,-9.188 4.245,-11.78 2.73,-2.081 6.225,-2.451 9.534,-2.75 3.043,-0.275 7.057,0.104 9.968,-0.9 2.435,-0.841 3.537,-2.995 5.344,-5.082 C -9.264,5.016 -5.137,1.23 0,0"
               style="fill:#ffef6d;fill-opacity:1;fill-rule:nonzero;stroke:none"
               id="path80" />
          </g>
          <g
             id="g82"
             transform="translate(401.2119,350.4258)">
            <path
               d="m 0,0 c -4.968,7.366 -14.419,22.671 -14.419,28.914 0,7.951 6.468,14.419 14.419,14.419 7.949,0 14.417,-6.468 14.417,-14.419 C 14.417,22.673 4.966,7.367 0,0 m 0,46.465 c -9.678,0 -17.551,-7.873 -17.551,-17.551 0,-9.215 15.604,-31.631 16.267,-32.581 0.294,-0.418 0.773,-0.668 1.284,-0.668 0.511,0 0.989,0.25 1.283,0.668 0.664,0.95 16.267,23.366 16.267,32.581 0,9.678 -7.873,17.551 -17.55,17.551"
               style="fill:#3a84ea;fill-opacity:1;fill-rule:nonzero;stroke:none"
               id="path84" />
          </g>
          <g
             id="g86"
             transform="translate(401.2119,377.3872)">
            <path
               d="m 0,0 c -1.897,0 -3.441,1.543 -3.441,3.441 0,1.897 1.544,3.441 3.441,3.441 1.897,0 3.44,-1.544 3.44,-3.441 C 3.44,1.543 1.897,0 0,0 m 0,10.014 c -3.625,0 -6.573,-2.949 -6.573,-6.573 0,-3.625 2.948,-6.573 6.573,-6.573 3.624,0 6.573,2.948 6.573,6.573 0,3.624 -2.949,6.573 -6.573,6.573"
               style="fill:#3a84ea;fill-opacity:1;fill-rule:nonzero;stroke:none"
               id="path88" />
          </g>
          <g
             id="g90"
             transform="translate(115.457,340.96)">
            <path
               d="m 0,0 c -6.429,1.563 -13.352,-1.496 -17.228,-6.995 -3.876,-5.499 -5.913,-16.318 -2.831,-26.16 5.168,-16.499 20.829,-20.556 33.618,-19.404 8.128,0.733 16.716,5.545 22.374,11.643 2.856,3.08 5.212,6.88 5.822,11.2 0.611,4.321 -0.811,9.192 -4.204,11.795 -2.723,2.09 -6.218,2.472 -9.525,2.783 -3.042,0.285 -7.057,-0.08 -9.964,0.934 -2.433,0.849 -3.527,3.007 -5.328,5.1 C 9.246,-5.048 5.132,-1.248 0,0"
               style="fill:#ffef6d;fill-opacity:1;fill-rule:nonzero;stroke:none"
               id="path92" />
          </g>
          <g
             id="g94"
             transform="translate(146.2822,298.0205)">
            <path
               d="M 0,0 -6.092,6.337 C -6.387,6.645 -6.794,6.818 -7.221,6.818 H -38.629 V 35.065 H 0 Z m 1.566,38.197 h -41.761 c -0.865,0 -1.567,-0.701 -1.567,-1.566 V 5.252 c 0,-0.865 0.702,-1.566 1.567,-1.566 h 32.307 l 8.325,-8.66 c 0.301,-0.314 0.711,-0.482 1.129,-0.482 0.197,0 0.395,0.037 0.585,0.114 0.593,0.238 0.981,0.813 0.981,1.452 v 40.521 c 0,0.865 -0.701,1.566 -1.566,1.566"
               style="fill:#3a84ea;fill-opacity:1;fill-rule:nonzero;stroke:none"
               id="path96" />
          </g>
          <g
             id="g98"
             transform="translate(116.3203,321.6636)">
            <path
               d="m 0,0 h 21.294 c 0.865,0 1.566,0.701 1.566,1.566 0,0.865 -0.701,1.566 -1.566,1.566 H 0 C -0.865,3.132 -1.566,2.431 -1.566,1.566 -1.566,0.701 -0.865,0 0,0"
               style="fill:#3a84ea;fill-opacity:1;fill-rule:nonzero;stroke:none"
               id="path100" />
          </g>
          <g
             id="g102"
             transform="translate(116.3203,312.8247)">
            <path
               d="m 0,0 h 21.294 c 0.865,0 1.566,0.702 1.566,1.566 0,0.865 -0.701,1.566 -1.566,1.566 H 0 C -0.865,3.132 -1.566,2.431 -1.566,1.566 -1.566,0.702 -0.865,0 0,0"
               style="fill:#3a84ea;fill-opacity:1;fill-rule:nonzero;stroke:none"
               id="path104" />
          </g>
          <g
             id="g106"
             transform="translate(143.8564,134.875)">
            <path
               d="m 0,0 c 2.495,3.911 3.299,9.197 1.224,13.118 -1.665,3.148 -4.82,4.97 -7.829,6.645 -2.768,1.541 -6.749,2.859 -9.066,5.047 -1.938,1.829 -2.023,4.364 -2.809,7.131 -1.522,5.361 -3.752,10.735 -8.082,14.073 -5.424,4.18 -13.365,4.112 -19.488,0.424 C -52.173,42.75 -58.903,33.169 -60.329,22.4 -62.72,4.347 -49.618,-6.079 -36.94,-10.288 c 8.056,-2.675 18.357,-1.609 26.44,1.915 C -6.418,-6.593 -2.494,-3.91 0,0"
               style="fill:#ffef6d;fill-opacity:1;fill-rule:nonzero;stroke:none"
               id="path108" />
          </g>
          <g
             id="g110"
             transform="translate(110.3301,143.8311)">
            <path
               d="M 0,0 C 0,0.864 0.702,1.565 1.566,1.565 H 7.282 C 8.146,1.565 8.848,0.864 8.848,0 8.848,-0.865 8.146,-1.566 7.282,-1.566 H 1.566 C 0.702,-1.566 0,-0.865 0,0 m -12.411,0 c 0,0.864 0.702,1.565 1.566,1.565 h 5.716 c 0.864,0 1.566,-0.701 1.566,-1.565 0,-0.865 -0.702,-1.566 -1.566,-1.566 h -5.716 c -0.864,0 -1.566,0.701 -1.566,1.566 m 24.822,7.629 c 0,0.865 0.702,1.566 1.567,1.566 h 5.715 c 0.865,0 1.566,-0.701 1.566,-1.566 0,-0.865 -0.701,-1.566 -1.566,-1.566 h -5.715 c -0.865,0 -1.567,0.701 -1.567,1.566 M 0,7.629 c 0,0.865 0.702,1.566 1.566,1.566 h 5.716 c 0.864,0 1.566,-0.701 1.566,-1.566 0,-0.865 -0.702,-1.566 -1.566,-1.566 H 1.566 C 0.702,6.063 0,6.764 0,7.629 m -12.411,0 c 0,0.865 0.702,1.566 1.566,1.566 h 5.716 c 0.864,0 1.566,-0.701 1.566,-1.566 0,-0.865 -0.702,-1.566 -1.566,-1.566 h -5.716 c -0.864,0 -1.566,0.701 -1.566,1.566 m 24.822,7.63 c 0,0.865 0.702,1.565 1.567,1.565 h 5.715 c 0.865,0 1.566,-0.7 1.566,-1.565 0,-0.865 -0.701,-1.567 -1.566,-1.567 h -5.715 c -0.865,0 -1.567,0.702 -1.567,1.567 M 0,15.259 c 0,0.865 0.702,1.565 1.566,1.565 h 5.716 c 0.864,0 1.566,-0.7 1.566,-1.565 0,-0.865 -0.702,-1.567 -1.566,-1.567 H 1.566 C 0.702,13.692 0,14.394 0,15.259 m -12.411,0 c 0,0.865 0.702,1.565 1.566,1.565 h 5.716 c 0.864,0 1.566,-0.7 1.566,-1.565 0,-0.865 -0.702,-1.567 -1.566,-1.567 h -5.716 c -0.864,0 -1.566,0.702 -1.566,1.567 m 39.804,10.902 h -45.938 v 9.252 c 0,0.948 0.772,1.72 1.721,1.72 h 4.413 v -1.095 c 0,-3.204 2.607,-5.81 5.811,-5.81 3.204,0 5.811,2.606 5.811,5.81 v 1.095 H 9.637 v -1.095 c 0,-3.204 2.607,-5.81 5.811,-5.81 3.204,0 5.811,2.606 5.811,5.81 v 1.095 h 4.413 c 0.949,0 1.721,-0.772 1.721,-1.72 z m 0,-24.596 H 18.866 C 18.001,1.565 17.3,0.864 17.3,0 v -8.527 h -35.845 v 31.555 h 45.938 z m -6.961,-7.877 v 4.746 h 4.746 z m 6.961,-2.215 h -4.747 l 4.747,4.746 z M -9.279,41.36 c 0,1.478 1.202,2.68 2.679,2.68 1.478,0 2.679,-1.202 2.679,-2.68 v -5.322 c 0,-1.477 -1.201,-2.679 -2.679,-2.679 -1.477,0 -2.679,1.202 -2.679,2.679 z m 22.048,0 c 0,1.478 1.201,2.68 2.679,2.68 1.477,0 2.679,-1.202 2.679,-2.68 v -5.322 c 0,-1.477 -1.202,-2.679 -2.679,-2.679 -1.478,0 -2.679,1.202 -2.679,2.679 z m 12.903,-1.094 h -4.413 v 1.094 c 0,3.204 -2.607,5.812 -5.811,5.812 -3.204,0 -5.811,-2.608 -5.811,-5.812 V 40.266 H -0.789 v 1.094 c 0,3.204 -2.607,5.812 -5.811,5.812 -3.204,0 -5.811,-2.608 -5.811,-5.812 v -1.094 h -4.413 c -2.676,0 -4.853,-2.177 -4.853,-4.853 V 24.595 -10.093 c 0,-0.865 0.701,-1.566 1.566,-1.566 h 49.07 c 0.864,0 1.566,0.701 1.566,1.566 v 34.688 10.818 c 0,2.676 -2.177,4.853 -4.853,4.853"
               style="fill:#3a84ea;fill-opacity:1;fill-rule:nonzero;stroke:none"
               id="path112" />
          </g>
          <g
             id="g114"
             transform="translate(458.6572,157.21)">
            <path
               d="m 0,0 c -2.296,3.315 -6.819,5.669 -11.653,5.2 -3.88,-0.377 -7.339,-2.411 -10.578,-4.37 -2.98,-1.803 -6.422,-4.683 -9.76,-5.905 -2.792,-1.024 -5.223,-0.285 -8.259,-0.053 -5.881,0.448 -12.167,0.314 -17.7,-2.211 -6.932,-3.162 -11.261,-9.766 -11.183,-16.019 0.078,-6.253 5.362,-14.889 14.695,-19.507 15.646,-7.742 32.696,-0.208 43.667,8.958 6.973,5.825 11.672,14.706 12.832,22.531 C 2.646,-7.425 2.295,-3.316 0,0"
               style="fill:#ffef6d;fill-opacity:1;fill-rule:nonzero;stroke:none"
               id="path116" />
          </g>
          <g
             id="g118"
             transform="translate(448.1924,128.417)">
            <path
               d="M 0,0 -23.976,-8.49 V 23.108 L 0,31.6 Z m -51.083,31.6 5.964,-2.113 V 18.011 c 0,-0.663 0.417,-1.255 1.042,-1.477 l 8.514,-3.022 c 0.171,-0.061 0.348,-0.091 0.525,-0.091 0.319,0 0.635,0.099 0.903,0.287 0.416,0.293 0.663,0.771 0.663,1.279 v 10.375 l 6.365,-2.254 V -8.49 L -51.083,0 Z m 25.541,10.155 4.408,-1.562 -22.416,-7.938 -4.407,1.56 z m -16.445,-12.27 25.545,9.047 3.82,-1.353 -22.94,-8.123 c -0.026,-0.01 -0.049,-0.026 -0.076,-0.036 -0.048,-0.021 -0.093,-0.042 -0.139,-0.067 -0.046,-0.024 -0.089,-0.051 -0.132,-0.079 -0.042,-0.028 -0.081,-0.058 -0.121,-0.09 -0.038,-0.032 -0.076,-0.065 -0.112,-0.1 -0.036,-0.038 -0.07,-0.076 -0.102,-0.116 -0.032,-0.038 -0.062,-0.077 -0.09,-0.119 -0.027,-0.042 -0.054,-0.085 -0.078,-0.13 -0.023,-0.042 -0.043,-0.083 -0.062,-0.126 -0.005,-0.011 -0.008,-0.022 -0.013,-0.034 -0.008,-0.019 -0.02,-0.037 -0.028,-0.057 -0.006,-0.022 -0.008,-0.043 -0.015,-0.065 -0.013,-0.041 -0.024,-0.082 -0.033,-0.124 -0.005,-0.02 -0.009,-0.041 -0.013,-0.062 -0.007,-0.04 -0.012,-0.08 -0.016,-0.119 -0.004,-0.039 -0.007,-0.078 -0.008,-0.117 0,-0.015 -0.004,-0.03 -0.004,-0.046 V 17.205 l -5.383,1.911 z m 16.445,-3.608 -4.805,1.702 22.416,7.939 4.806,-1.703 z m 28.67,7.977 c -0.002,0.097 -0.015,0.194 -0.035,0.289 -0.004,0.017 -0.004,0.036 -0.009,0.054 -0.027,0.11 -0.068,0.215 -0.119,0.317 -0.015,0.03 -0.034,0.056 -0.051,0.085 -0.041,0.07 -0.085,0.138 -0.137,0.202 -0.024,0.03 -0.05,0.057 -0.078,0.087 -0.054,0.057 -0.114,0.11 -0.178,0.16 -0.018,0.015 -0.032,0.033 -0.051,0.047 -0.013,0.009 -0.027,0.012 -0.039,0.021 -0.07,0.046 -0.145,0.085 -0.223,0.12 -0.031,0.014 -0.06,0.031 -0.091,0.042 -0.01,0.004 -0.017,0.01 -0.027,0.014 l -27.109,9.601 c -0.338,0.119 -0.708,0.119 -1.045,0 l -27.108,-9.601 c -0.009,-0.003 -0.016,-0.009 -0.025,-0.012 -0.034,-0.012 -0.067,-0.032 -0.1,-0.048 -0.076,-0.034 -0.148,-0.071 -0.216,-0.116 -0.012,-0.009 -0.027,-0.012 -0.04,-0.021 -0.018,-0.014 -0.033,-0.032 -0.051,-0.047 -0.064,-0.05 -0.123,-0.103 -0.177,-0.16 -0.028,-0.029 -0.054,-0.057 -0.079,-0.087 -0.051,-0.064 -0.096,-0.132 -0.137,-0.202 -0.017,-0.029 -0.036,-0.055 -0.051,-0.085 -0.051,-0.102 -0.091,-0.207 -0.119,-0.317 -0.005,-0.018 -0.005,-0.037 -0.009,-0.055 -0.02,-0.094 -0.032,-0.191 -0.035,-0.288 0,-0.013 -0.004,-0.026 -0.004,-0.039 V -1.107 c 0,-0.664 0.418,-1.254 1.043,-1.476 l 27.108,-9.6 c 0.007,-0.004 0.017,-0.002 0.026,-0.005 0.16,-0.053 0.327,-0.084 0.496,-0.084 0.169,0 0.336,0.031 0.496,0.084 0.009,0.003 0.019,0.001 0.027,0.005 l 27.109,9.6 c 0.625,0.222 1.043,0.812 1.043,1.476 v 34.922 c 0,0.013 -0.005,0.026 -0.005,0.039"
               style="fill:#3a84ea;fill-opacity:1;fill-rule:nonzero;stroke:none"
               id="path120" />
          </g>
          <g
             id="g122"
             transform="translate(268.9687,91.4297)">
            <path
               d="m 0,0 c 2.555,-30.617 2.024,-71.113 3.705,-91.43 h 28.354 c 4.895,23.155 15.506,77.119 23.918,146.315 3.7,30.435 -112.328,25.365 -124.482,4.92 0,0 15.581,-99.175 25.868,-151.235 H -9.152 C -6.729,-67.815 -2.161,-26.145 0,0"
               style="fill:#4b4563;fill-opacity:1;fill-rule:nonzero;stroke:none"
               id="path124" />
          </g>
          <g
             id="g126">
            <g
               id="g128" />
            <g
               id="g140">
              <g
                 clip-path="url(#clipPath132)"
                 opacity="0.5"
                 id="g138">
                <g
                   transform="translate(234.3281,115.6758)"
                   id="g136">
                  <path
                     d="m 0,0 c 13.005,-2.12 35.906,-1.531 49.453,0.365 18.254,2.556 29.448,8.032 39.368,15.978 0.608,4.688 1.208,9.452 1.797,14.296 3.699,30.435 -112.328,25.365 -124.482,4.92 0,0 15.58,-99.175 25.867,-151.235 H 9.046 C 7.304,-83.121 2.017,-26.25 0,0"
                     style="fill:#4b4563;fill-opacity:1;fill-rule:nonzero;stroke:none"
                     id="path134" />
                </g>
              </g>
            </g>
          </g>
          <g
             id="g142">
            <g
               id="g144" />
            <g
               id="g156">
              <g
                 clip-path="url(#clipPath148)"
                 opacity="0.5"
                 id="g154">
                <g
                   transform="translate(286.7017,37.3643)"
                   id="g152">
                  <path
                     d="m 0,0 c 0.101,10.277 -0.814,28.989 -1.46,39.247 -0.519,8.232 -10.962,15.151 -16.392,25.093 -0.235,-5.692 -0.06,-12.441 0.119,-10.275 2.555,-30.617 2.025,-71.113 3.705,-91.429 H 0.122 C 0.01,-25.129 -0.136,-13.851 0,0"
                     style="fill:#4b4563;fill-opacity:1;fill-rule:nonzero;stroke:none"
                     id="path150" />
                </g>
              </g>
            </g>
          </g>
          <g
             id="g158"
             transform="translate(293.0005,317.3848)">
            <path
               d="m 0,0 c 0,0 28.397,-5.869 51.314,-25.807 20.482,-17.818 53.557,-57.217 20.482,-108.857 l -20.528,5.254 c 0,0 -7.77,59.347 -27.251,67.38 C 4.537,-53.999 -7.092,-13.909 0,0"
               style="fill:#1b97e9;fill-opacity:1;fill-rule:nonzero;stroke:none"
               id="path160" />
          </g>
          <g
             id="g162"
             transform="translate(226.6641,317.3848)">
            <path
               d="M 0,0 C 0,0 28.174,-29.149 39.43,-25.807 50.685,-22.463 66.336,0 66.336,0 c 0,0 17.797,-7.244 31.743,-35.797 11.325,-23.187 20.894,-69.648 0.203,-135.273 -30.884,-27.2 -112.481,-19.985 -126.242,4.989 C -43.772,-104.472 -58.799,-33.22 0,0"
               style="fill:#3a84ea;fill-opacity:1;fill-rule:nonzero;stroke:none"
               id="path164" />
          </g>
          <g
             id="g166">
            <g
               id="g168" />
            <g
               id="g180">
              <g
                 clip-path="url(#clipPath172)"
                 opacity="0.300003"
                 id="g178">
                <g
                   transform="translate(324.7432,281.5879)"
                   id="g176">
                  <path
                     d="m 0,0 c -13.947,28.553 -31.743,35.796 -31.743,35.796 0,0 -0.165,-0.236 -0.462,-0.649 0.508,-0.321 1.004,-0.658 1.474,-1.024 5.818,-4.529 8.084,-11.864 9.053,-19.265 2.064,-0.768 3.81,-2.44 4.577,-5.203 8.818,-31.77 16.991,-64.332 10.953,-97.397 -0.363,-1.985 -1.462,-3.45 -2.918,-4.412 3.466,-9.034 9.941,-16.383 5.446,-26.86 -4.261,-9.929 -14.57,-14.245 -24.376,-16.879 -12.336,-3.313 -25.337,-1.828 -37.908,-3.478 -11.571,-1.519 -23.392,-2.396 -33.721,4.081 -4.606,2.889 -5.144,8.737 -1.636,12.7 9.794,11.065 28.326,9.488 41.594,11.75 0.663,0.113 1.327,0.216 1.99,0.324 -0.046,0.018 -0.094,0.032 -0.14,0.049 -7.172,1.738 -14.156,4.456 -20.002,7.022 -27.358,12.004 -35.59,43.648 -37.955,70.772 -1.842,21.134 -0.086,45.522 11.037,64.321 -50.931,-34.731 -36.486,-102.774 -21.302,-161.932 13.761,-24.974 95.358,-32.189 126.242,-4.989 C 20.895,-69.648 11.325,-23.187 0,0"
                     style="fill:#3a84ea;fill-opacity:1;fill-rule:nonzero;stroke:none"
                     id="path174" />
                </g>
              </g>
            </g>
          </g>
          <g
             id="g182"
             transform="translate(229.9497,341.6978)">
            <path
               d="m 0,0 v -25.191 c 0,0 23.561,-29.298 37.725,-24.37 14.163,4.929 23.473,22.453 23.473,22.453 L 58.571,1.493 Z"
               style="fill:#fff1dd;fill-opacity:1;fill-rule:nonzero;stroke:none"
               id="path184" />
          </g>
          <g
             id="g186">
            <g
               id="g188" />
            <g
               id="g200">
              <g
                 clip-path="url(#clipPath192)"
                 id="g198">
                <g
                   transform="translate(229.9497,341.6978)"
                   id="g196">
                  <path
                     d="m 0,0 v -25.191 c 0,0 23.561,-29.298 37.725,-24.37 14.163,4.929 23.473,22.453 23.473,22.453 L 58.571,1.493 Z"
                     style="fill:#fff1dd;fill-opacity:1;fill-rule:nonzero;stroke:none"
                     id="path194" />
                </g>
              </g>
            </g>
          </g>
          <g
             id="g202"
             transform="translate(308.0962,389.4839)">
            <path
               d="M 0,0 C -1.3,12.188 -7.651,6.916 -7.651,6.916 L -7.62,6.607 c -2.14,12.715 -4.947,23.272 -4.947,23.272 -39.704,44.261 -90.019,-11.945 -92.55,-19.616 -2.532,-7.671 1.766,-27.929 1.766,-27.929 -3.162,2.738 -12.171,-1.095 -6.421,-13.144 5.75,-12.047 13.348,-6.483 13.348,-6.483 16.133,-25.461 48.991,-26.009 58.392,-24.184 5.114,0.993 24.643,14.239 30.941,30.667 1.625,4.24 2.045,10.333 1.777,17.04 C -4.242,-13.403 1.173,-10.997 0,0"
               style="fill:#fff1dd;fill-opacity:1;fill-rule:nonzero;stroke:none"
               id="path204" />
          </g>
          <g
             id="g206">
            <g
               id="g208" />
            <g
               id="g220">
              <g
                 clip-path="url(#clipPath212)"
                 id="g218">
                <g
                   transform="translate(308.0962,389.4839)"
                   id="g216">
                  <path
                     d="m 0,0 c -0.903,8.467 -4.243,8.506 -6.198,7.742 -0.148,-2.633 -0.739,-5.294 -1.167,-7.937 -0.91,-5.624 -1.448,-11.282 -1.457,-16.983 -0.01,-5.674 1.183,-11.579 0.122,-17.214 0.599,1.175 1.144,2.369 1.609,3.582 1.625,4.24 2.045,10.333 1.776,17.04 C -4.241,-13.403 1.173,-10.997 0,0 m -92.062,-34.81 c 1.317,-5.018 3.167,-9.72 5.864,-14.031 -3.799,3.118 -7.291,6.916 -10.226,11.548 0,0 -7.598,-5.564 -13.348,6.483 -5.75,12.049 3.259,15.882 6.421,13.144 0,0 -4.298,20.258 -1.766,27.929 2.531,7.671 52.846,63.877 92.55,19.616 0,0 1.231,-4.637 2.683,-11.45 -1.843,1.936 -4.115,3.466 -6.223,5.198 -4.168,3.425 -8.643,7.132 -14.324,7.286 -6.174,0.168 -11.306,-3.413 -15.905,-7.084 -4.869,-3.885 -9.931,-7.599 -15.103,-11.074 -4.841,-3.252 -8.877,-4.68 -14.473,-6.09 -4.963,-1.25 -9.973,-2.829 -13.63,-6.597 -0.583,-0.601 -1.043,-1.228 -1.397,-1.868 -0.142,-0.191 -0.283,-0.381 -0.415,-0.59 -5.922,-9.356 -3.339,-22.398 -0.708,-32.42"
                     style="fill:#fff1dd;fill-opacity:1;fill-rule:nonzero;stroke:none"
                     id="path214" />
                </g>
              </g>
            </g>
          </g>
          <g
             id="g222"
             transform="translate(189.6455,399.8008)">
            <path
               d="m 0,0 c -0.257,-16.209 4.21,-27.367 7.391,-30.858 1.561,3.24 5.398,4.121 7.709,2.875 3.425,-10.815 6.927,-6.741 6.927,-6.741 0,0 -7.39,25.715 4.658,36.066 3.482,2.991 30.057,8.213 49.915,19.733 2.846,1.652 11.32,8.044 12.776,9.491 C 62.709,55.499 0.184,11.604 0,0"
               style="fill:#50534f;fill-opacity:1;fill-rule:nonzero;stroke:none"
               id="path224" />
          </g>
          <g
             id="g226"
             transform="translate(229.4761,387.5132)">
            <path
               d="m 0,0 c -0.049,0 -0.098,0.006 -0.147,0.021 -0.292,0.081 -0.461,0.383 -0.38,0.675 0.089,0.316 2.23,7.769 7.152,10.207 1.945,0.964 4.052,1.01 6.268,0.132 0.28,-0.112 0.418,-0.43 0.307,-0.711 C 13.089,10.042 12.77,9.906 12.489,10.016 10.577,10.774 8.767,10.743 7.111,9.921 2.621,7.697 0.548,0.472 0.527,0.399 0.46,0.158 0.24,0 0,0"
               style="fill:#50534f;fill-opacity:1;fill-rule:nonzero;stroke:none"
               id="path228" />
          </g>
          <g
             id="g230"
             transform="translate(285.5093,404.416)">
            <path
               d="m 0,0 c -0.139,0 -0.277,0.052 -0.384,0.156 -0.276,0.271 -6.838,6.569 -13.463,1.278 -0.236,-0.189 -0.581,-0.151 -0.77,0.086 -0.19,0.236 -0.15,0.581 0.085,0.77 C -7.141,8.192 0.31,1.011 0.384,0.937 0.6,0.725 0.602,0.379 0.39,0.164 0.283,0.055 0.141,0 0,0"
               style="fill:#50534f;fill-opacity:1;fill-rule:nonzero;stroke:none"
               id="path232" />
          </g>
          <g
             id="g234"
             transform="translate(243.7026,387.5415)">
            <path
               d="m 0,0 c 1.027,-2.543 0.707,-5.07 -0.715,-5.644 -1.422,-0.574 -3.407,1.022 -4.434,3.565 -1.027,2.543 -0.706,5.07 0.715,5.644 C -3.012,4.139 -1.027,2.543 0,0"
               style="fill:#50534f;fill-opacity:1;fill-rule:nonzero;stroke:none"
               id="path236" />
          </g>
          <g
             id="g238"
             transform="translate(281.1904,396.1768)">
            <path
               d="m 0,0 c 0,-2.742 -1.243,-4.965 -2.776,-4.965 -1.534,0 -2.777,2.223 -2.777,4.965 0,2.743 1.243,4.966 2.777,4.966 C -1.243,4.966 0,2.743 0,0"
               style="fill:#50534f;fill-opacity:1;fill-rule:nonzero;stroke:none"
               id="path240" />
          </g>
          <g
             id="g242">
            <g
               id="g244" />
            <g
               id="g256">
              <g
                 clip-path="url(#clipPath248)"
                 id="g254">
                <g
                   transform="translate(258.1416,396.1768)"
                   id="g252">
                  <path
                     d="m 0,0 c 0,0 -3.944,-15.423 -1.62,-21.435 2.324,-6.011 7.632,3.459 7.632,3.459 z"
                     style="fill:#fff1dd;fill-opacity:1;fill-rule:nonzero;stroke:none"
                     id="path250" />
                </g>
              </g>
            </g>
          </g>
          <g
             id="g258"
             transform="translate(228.7178,330.061)">
            <path
               d="m 0,0 c 12.869,-10.405 20.399,-15.54 31.831,-20.947 3.266,-1.545 5.545,-9.928 5.545,-17.536 -19.715,-2.727 -39.43,25.807 -39.43,25.807 0,0 -0.055,14.381 2.054,12.676"
               style="fill:#ffa829;fill-opacity:1;fill-rule:nonzero;stroke:none"
               id="path260" />
          </g>
          <g
             id="g262"
             transform="translate(290.5088,328.6108)">
            <path
               d="m 0,0 c -8.808,-9.503 -16.666,-14.779 -23.059,-19.36 -2.711,-1.943 -1.356,-10.064 -1.356,-17.673 16.427,-1.849 26.907,25.807 26.907,25.807 0,0 -0.765,13.088 -2.492,11.226"
               style="fill:#ffa829;fill-opacity:1;fill-rule:nonzero;stroke:none"
               id="path264" />
          </g>
          <g
             id="g266"
             transform="translate(361.0083,176.7383)">
            <path
               d="m 0,0 c 0,0 -15.604,-8.762 -18.145,-9.31 -2.542,-0.547 -7.767,-3.103 -12.567,-0.547 -4.802,2.555 -18.498,9.857 -16.945,12.23 1.553,2.373 6.778,4.199 9.319,1.644 2.542,-2.556 14.448,-2.921 14.448,-2.921 0,0 11.393,2.373 12.664,2.921 C -9.955,4.564 0,0 0,0"
               style="fill:#c4ecff;fill-opacity:1;fill-rule:nonzero;stroke:none"
               id="path268" />
          </g>
          <g
             id="g270"
             transform="translate(342.0176,181.2461)">
            <path
               d="m 0,0 17.026,-5.932 c 0,0 6.684,0 9.194,12.319 -7.583,8.101 -22.981,4.82 -22.981,4.82 z"
               style="fill:#ffa829;fill-opacity:1;fill-rule:nonzero;stroke:none"
               id="path272" />
          </g>
          <g
             id="g274"
             transform="translate(266.0937,291.5781)">
            <path
               d="m 0,0 c 0,0 9.203,-157.198 8.093,-161.149 -1.111,-3.952 -11.439,-1.45 -11.439,-1.45 0,0 -6.649,147.003 -9.39,166.254 C -7.515,1.016 0,0 0,0"
               style="fill:#ffa829;fill-opacity:1;fill-rule:nonzero;stroke:none"
               id="path276" />
          </g>
          <g
             id="g278"
             transform="translate(234.7173,465.96)">
            <path
               d="m 0,0 c -9.921,-1.661 -31.795,-10.014 -40.378,-27.042 -7.373,-14.627 -5.63,-40.665 -5.077,-41.219 0.555,-0.553 6.049,-3.482 17.332,-3.481 0,0 20.048,61.221 28.123,71.742"
               style="fill:#3a84ea;fill-opacity:1;fill-rule:nonzero;stroke:none"
               id="path280" />
          </g>
          <g
             id="g282"
             transform="translate(240.6709,467.2817)">
            <path
               d="m 0,0 c -17.93,-3.02 -31.565,-13.689 -33.872,-25.042 -3.386,-16.66 0,-46.793 0,-46.793 0,0 17.321,24.513 41.882,31.117 21.966,5.907 33.707,3.771 46.72,-2.69 0,0 -5.26,24.735 -13.567,33.595 C 36.239,-4.561 18.459,3.108 0,0"
               style="fill:#1b97e9;fill-opacity:1;fill-rule:nonzero;stroke:none"
               id="path284" />
          </g>
          <g
             id="g286">
            <g
               id="g288" />
            <g
               id="g300">
              <g
                 clip-path="url(#clipPath292)"
                 opacity="0.199997"
                 id="g298">
                <g
                   transform="translate(221.77,459.2246)"
                   id="g296">
                  <path
                     d="m 0,0 c 0.331,-5.914 13.924,-9.449 18.36,-11.193 12.526,-4.924 25.122,-9.631 37.783,-14.195 5.679,-2.047 11.591,-4.535 16.961,-7.678 -1.524,6.325 -6.27,24.088 -13.04,31.31 C 55.14,3.497 37.359,11.166 18.901,8.057 11.708,6.846 5.208,4.401 -0.149,1.177 -0.079,0.799 -0.023,0.411 0,0"
                     style="fill:#1b97e9;fill-opacity:1;fill-rule:nonzero;stroke:none"
                     id="path294" />
                </g>
              </g>
            </g>
          </g>
          <g
             id="g302"
             transform="translate(206.5942,394.2178)">
            <path
               d="m 0,0 c 0,0 25.955,-0.709 33.154,7.875 7.199,8.583 18.07,26.963 36.924,29.349 C 64.099,37.326 43.332,36.232 30.319,29.578 14.075,21.271 3.343,10.061 0,0"
               style="fill:#3a84ea;fill-opacity:1;fill-rule:nonzero;stroke:none"
               id="path304" />
          </g>
          <g
             id="g306"
             transform="translate(267.1738,430.3945)">
            <path
               d="m 0,0 c 0,0 8.793,-0.842 20.198,-8.92 8.86,-6.276 8.886,-9.722 10.891,-10.706 7.452,-3.661 15.824,2.504 13.105,6.829 C 42.487,-10.081 25.11,5.202 0,0"
               style="fill:#3a84ea;fill-opacity:1;fill-rule:nonzero;stroke:none"
               id="path308" />
          </g>
          <g
             id="g310"
             transform="translate(311.3682,417.5977)">
            <path
               d="m 0,0 c -1.495,2.378 -15.008,14.394 -35.208,13.85 -6.569,0.034 -12.998,-1.278 -24.849,-13.236 -10.175,-10.268 -13.491,-17.426 -17.299,-20.034 2.384,0.997 4.373,2.29 5.736,3.915 6.3,7.511 15.411,22.524 30.224,27.757 6.7,1.592 16.795,0.376 25.429,-2.939 C -9.599,6.867 -2.673,2.183 0.439,-2.55 0.63,-1.687 0.51,-0.811 0,0"
               style="fill:#ffa829;fill-opacity:1;fill-rule:nonzero;stroke:none"
               id="path312" />
          </g>
          <g
             id="g314"
             transform="translate(222.6938,367.9839)">
            <path
               d="m 0,0 c -0.102,0 -0.205,0.014 -0.307,0.044 -9.545,2.788 -14.736,3.435 -17.641,3.79 -1.307,0.47 -3.189,0.54 -4.014,0.282 -0.566,-0.177 -1.149,-0.451 -1.827,-0.893 -0.27,0.527 -0.164,1.494 0.355,1.78 0.495,0.272 5.371,2.509 23.741,-2.856 C 0.888,1.978 1.22,1.37 1.051,0.789 0.911,0.311 0.475,0 0,0"
               style="fill:#ffffff;fill-opacity:1;fill-rule:nonzero;stroke:none"
               id="path316" />
          </g>
          <g
             id="g318"
             transform="translate(236.3994,333.6714)">
            <path
               d="m 0,0 c -0.163,0 -0.327,0.036 -0.482,0.113 -13.667,6.729 -25.863,16.889 -25.985,16.991 -0.15,0.126 -0.258,0.284 -0.322,0.455 0.414,0.139 0.689,0.231 1.058,0.407 0.619,0.298 0.898,0.517 1.004,0.554 C -24.607,18.419 -12.939,8.688 0.484,2.078 1.028,1.811 1.25,1.154 0.984,0.611 0.793,0.225 0.404,0 0,0"
               style="fill:#ffffff;fill-opacity:1;fill-rule:nonzero;stroke:none"
               id="path320" />
          </g>
          <g
             id="g322"
             transform="translate(301.1006,382.7705)">
            <path
               d="m 0,0 c -0.09,0 -0.182,0.011 -0.273,0.034 -0.586,0.151 -0.939,0.747 -0.789,1.333 1.404,5.48 0.503,12.759 0.494,12.832 -0.076,0.6 0.349,1.149 0.949,1.225 C 0.99,15.497 1.528,15.075 1.605,14.475 1.645,14.161 2.567,6.704 1.06,0.823 0.933,0.328 0.488,0 0,0"
               style="fill:#ffffff;fill-opacity:1;fill-rule:nonzero;stroke:none"
               id="path324" />
          </g>
          <g
             id="g326"
             transform="translate(222.6938,369.0796)">
            <path
               d="m 0,0 c 0.061,0.864 37.239,18.893 46.549,19.989 9.309,1.095 30.393,-1.917 32.31,-4.108 1.917,-2.19 2.464,-19.988 0,-30.667 C 76.395,-25.465 59.966,-41.181 53.394,-43.015 46.822,-44.849 25.555,-43.312 16.766,-37.057 7.976,-30.801 -0.722,-10.188 0,0"
               style="fill:#50e3ff;fill-opacity:1;fill-rule:nonzero;stroke:none"
               id="path328" />
          </g>
          <g
             id="g330">
            <g
               id="g332" />
            <g
               id="g344">
              <g
                 clip-path="url(#clipPath336)"
                 opacity="0.5"
                 id="g342">
                <g
                   transform="translate(266.897,364.1133)"
                   id="g340">
                  <path
                     d="M 0,0 C -1.308,4.902 -4.933,16.619 -5.62,18.79 -7.476,18.122 -7.383,18.206 -9.567,17.293 -9.34,17.004 -4.411,-2.665 0,0"
                     style="fill:#50e3ff;fill-opacity:1;fill-rule:nonzero;stroke:none"
                     id="path338" />
                </g>
              </g>
            </g>
          </g>
          <g
             id="g346">
            <g
               id="g348" />
            <g
               id="g360">
              <g
                 clip-path="url(#clipPath352)"
                 opacity="0.5"
                 id="g358">
                <g
                   transform="translate(260.8066,339.8408)"
                   id="g356">
                  <path
                     d="m 0,0 c -10.459,2.377 -19.969,6.204 -27.956,13.508 -6.187,5.659 -10.132,16.078 -10.157,15.731 -0.722,-10.188 7.976,-30.801 16.765,-37.057 8.79,-6.255 30.058,-7.792 36.629,-5.958 3.67,1.024 10.412,6.378 16.081,12.765 C 20.91,-3.065 8.524,-1.937 0,0"
                     style="fill:#50e3ff;fill-opacity:1;fill-rule:nonzero;stroke:none"
                     id="path354" />
                </g>
              </g>
            </g>
          </g>
          <g
             id="g362">
            <g
               id="g364" />
            <g
               id="g376">
              <g
                 clip-path="url(#clipPath368)"
                 opacity="0.300003"
                 id="g374">
                <g
                   transform="translate(277.5288,306.4126)"
                   id="g372">
                  <path
                     d="m 0,0 5.948,-49.584 -16.975,-8.274 55.182,-82.79 -49.271,-25.151 -20.398,11.908 -17.687,90.438 19.667,5.623 -2.339,46.108 19.163,16.18 z"
                     style="fill:#3a84ea;fill-opacity:1;fill-rule:nonzero;stroke:none"
                     id="path370" />
                </g>
              </g>
            </g>
          </g>
          <g
             id="g378"
             transform="translate(226.6641,317.3848)">
            <path
               d="m 0,0 c 0,0 -38.194,-5.923 -62.632,-48.372 -32.858,-57.073 -1.096,-143.114 92.309,-115.271 l -9.008,20.337 c 0,0 -62.845,4.808 -46.869,92.014 C -20.371,-19.473 -3.146,-6.586 0,0"
               style="fill:#1b97e9;fill-opacity:1;fill-rule:nonzero;stroke:none"
               id="path380" />
          </g>
          <g
             id="g382">
            <g
               id="g384" />
            <g
               id="g396">
              <g
                 clip-path="url(#clipPath388)"
                 opacity="0.399994"
                 id="g394">
                <g
                   transform="translate(175.7754,277.1567)"
                   id="g392">
                  <path
                     d="M 0,0 C 5.689,10.549 12.125,18.961 18.649,25.696 8.401,18.438 -2.628,7.691 -11.744,-8.144 -41.064,-59.074 -18.924,-133.062 52.551,-128.619 -9.537,-124.419 -27.649,-51.267 0,0"
                     style="fill:#1b97e9;fill-opacity:1;fill-rule:nonzero;stroke:none"
                     id="path390" />
                </g>
              </g>
            </g>
          </g>
          <g
             id="g398"
             transform="translate(260.126,172.124)">
            <path
               d="m 0,0 9.656,-14.759 c 0,0 9.315,3.635 12.511,2.696 3.196,-0.939 9.594,-4.289 16.062,-2.498 6.469,1.791 24.926,6.911 23.218,9.507 -1.708,2.598 -8.194,5.223 -11.763,3.08 -3.569,-2.141 -19.025,-1.74 -19.025,-1.74 0,0 -14.204,5.215 -15.769,5.956 C 13.325,2.983 0,0 0,0"
               style="fill:#c4ecff;fill-opacity:1;fill-rule:nonzero;stroke:none"
               id="path400" />
          </g>
          <g
             id="g402"
             transform="translate(262.748,173.2939)">
            <path
               d="m 0,0 c 0,0 4.954,-11.238 9.05,-14.806 -6.011,-5.195 -19.783,-5.966 -19.783,-5.966 l -4.682,21.557 z"
               style="fill:#ffa829;fill-opacity:1;fill-rule:nonzero;stroke:none"
               id="path404" />
          </g>
          <g
             id="g406"
             transform="translate(246.3789,253.873)">
            <path
               d="m 0,0 9.98,-73.898 37.865,-18.54 -4.894,73.143 z"
               style="fill:#d7b673;fill-opacity:1;fill-rule:nonzero;stroke:none"
               id="path408" />
          </g>
          <g
             id="g410">
            <g
               id="g412" />
            <g
               id="g424">
              <g
                 clip-path="url(#clipPath416)"
                 opacity="0.300003"
                 id="g422">
                <g
                   transform="translate(250.6025,222.5996)"
                   id="g420">
                  <path
                     d="m 0,0 5.757,-42.625 37.865,-18.539 -2.606,38.94 C 21.811,-71.354 0,0 0,0"
                     style="fill:#e1c079;fill-opacity:1;fill-rule:nonzero;stroke:none"
                     id="path418" />
                </g>
              </g>
            </g>
          </g>
          <g
             id="g426"
             transform="translate(246.3789,253.873)">
            <path
               d="M 0,0 91.967,12.97 143.145,-3.629 42.951,-19.295 Z"
               style="fill:#f2cd89;fill-opacity:1;fill-rule:nonzero;stroke:none"
               id="path428" />
          </g>
          <g
             id="g430"
             transform="translate(389.5234,250.2441)">
            <path
               d="m 0,0 -9.788,-74.533 -85.511,-14.276 -4.895,73.143 z"
               style="fill:#e1c079;fill-opacity:1;fill-rule:nonzero;stroke:none"
               id="path432" />
          </g>
          <g
             id="g434">
            <g
               id="g436" />
            <g
               id="g448">
              <g
                 clip-path="url(#clipPath440)"
                 opacity="0.300003"
                 id="g446">
                <g
                   transform="translate(380.6523,182.6953)"
                   id="g444">
                  <path
                     d="M 0,0 -0.917,-6.984 -86.428,-21.26 -89.521,24.959 C -73.586,-15.004 0,0 0,0"
                     style="fill:#e1c079;fill-opacity:1;fill-rule:nonzero;stroke:none"
                     id="path442" />
                </g>
              </g>
            </g>
          </g>
          <g
             id="g450">
            <g
               id="g452" />
            <g
               id="g464">
              <g
                 clip-path="url(#clipPath456)"
                 opacity="0.399994"
                 id="g462">
                <g
                   transform="translate(259.8867,247.8047)"
                   id="g460">
                  <path
                     d="M 0,0 12.83,-5.693 111.998,8.16 94.531,13.826 Z"
                     style="fill:#ffeba8;fill-opacity:1;fill-rule:nonzero;stroke:none"
                     id="path458" />
                </g>
              </g>
            </g>
          </g>
          <g
             id="g466">
            <g
               id="g468" />
            <g
               id="g480">
              <g
                 clip-path="url(#clipPath472)"
                 opacity="0.399994"
                 id="g478">
                <g
                   transform="translate(259.8867,247.8047)"
                   id="g476">
                  <path
                     d="M 0,0 4.689,-41.965 14.715,-47.429 12.83,-5.693 Z"
                     style="fill:#ffeba8;fill-opacity:1;fill-rule:nonzero;stroke:none"
                     id="path474" />
                </g>
              </g>
            </g>
          </g>
          <g
             id="g482">
            <g
               id="g484" />
            <g
               id="g496">
              <g
                 clip-path="url(#clipPath488)"
                 id="g494">
                <g
                   transform="translate(280.0088,256.2617)"
                   id="g492">
                  <path
                     d="m 0,0 -2.934,1.94 -19.179,-2.705 37.825,-18.147 73.437,15.38 z"
                     style="fill:#f2cd89;fill-opacity:1;fill-rule:nonzero;stroke:none"
                     id="path490" />
                </g>
              </g>
            </g>
          </g>
          <g
             id="g498"
             transform="translate(269.9609,310.8706)">
            <path
               d="m 0,0 7.424,-54.969 28.165,-13.79 -3.64,54.407 z"
               style="fill:#d7b673;fill-opacity:1;fill-rule:nonzero;stroke:none"
               id="path500" />
          </g>
          <g
             id="g502">
            <g
               id="g504" />
            <g
               id="g516">
              <g
                 clip-path="url(#clipPath508)"
                 opacity="0.300003"
                 id="g514">
                <g
                   transform="translate(273.1025,287.6084)"
                   id="g512">
                  <path
                     d="m 0,0 4.283,-31.707 28.165,-13.79 -1.938,28.966 C 16.224,-53.077 0,0 0,0"
                     style="fill:#e1c079;fill-opacity:1;fill-rule:nonzero;stroke:none"
                     id="path510" />
                </g>
              </g>
            </g>
          </g>
          <g
             id="g518"
             transform="translate(269.9609,310.8706)">
            <path
               d="M 0,0 68.409,9.648 106.478,-2.699 31.949,-14.352 Z"
               style="fill:#f2cd89;fill-opacity:1;fill-rule:nonzero;stroke:none"
               id="path520" />
          </g>
          <g
             id="g522"
             transform="translate(376.4385,308.1714)">
            <path
               d="m 0,0 -7.281,-55.441 -63.607,-10.619 -3.641,54.407 z"
               style="fill:#e1c079;fill-opacity:1;fill-rule:nonzero;stroke:none"
               id="path524" />
          </g>
          <g
             id="g526">
            <g
               id="g528" />
            <g
               id="g540">
              <g
                 clip-path="url(#clipPath532)"
                 opacity="0.300003"
                 id="g538">
                <g
                   transform="translate(369.8398,257.9253)"
                   id="g536">
                  <path
                     d="m 0,0 -0.682,-5.195 -63.608,-10.619 -2.3,34.38 C -54.737,-11.161 0,0 0,0"
                     style="fill:#e1c079;fill-opacity:1;fill-rule:nonzero;stroke:none"
                     id="path534" />
                </g>
              </g>
            </g>
          </g>
          <g
             id="g542">
            <g
               id="g544" />
            <g
               id="g556">
              <g
                 clip-path="url(#clipPath548)"
                 opacity="0.399994"
                 id="g554">
                <g
                   transform="translate(280.0088,306.3569)"
                   id="g552">
                  <path
                     d="M 0,0 9.543,-4.235 83.309,6.07 70.316,10.284 Z"
                     style="fill:#ffeba8;fill-opacity:1;fill-rule:nonzero;stroke:none"
                     id="path550" />
                </g>
              </g>
            </g>
          </g>
          <g
             id="g558">
            <g
               id="g560" />
            <g
               id="g572">
              <g
                 clip-path="url(#clipPath564)"
                 opacity="0.399994"
                 id="g570">
                <g
                   transform="translate(280.0088,306.3569)"
                   id="g568">
                  <path
                     d="M 0,0 3.488,-31.215 10.946,-35.28 9.543,-4.235 Z"
                     style="fill:#ffeba8;fill-opacity:1;fill-rule:nonzero;stroke:none"
                     id="path566" />
                </g>
              </g>
            </g>
          </g>
        </g>
      </g>
    </g>
  </g>
</svg>
